<svg id="svg-source" height="0" version="1.1" 
  xmlns="http://www.w3.org/2000/svg" style="position:absolute; margin-left: -100%" 
  xmlns:xlink="http://www.w3.org/1999/xlink">
  <g id="user" data-iconmelon="80 icons pack:cdfc0a94ed2dd5a94f21679c483e5602">
    <g>
      <g>
        <path d="M22.463,14.812c1.461-1.575,2.361-3.676,2.361-5.988C24.824,3.958,20.866,0,16,0S7.176,3.958,7.176,8.824
			c0,2.312,0.9,4.413,2.361,5.988c-3.711,3.205-6.377,9.093-6.888,16.125c-0.021,0.274,0.075,0.545,0.263,0.746
			C3.099,31.885,3.361,32,3.637,32h24.727c0.275,0,0.538-0.115,0.726-0.316c0.187-0.201,0.282-0.472,0.262-0.746
			C28.84,23.905,26.174,18.018,22.463,14.812 M16,1.979c3.774,0,6.846,3.071,6.846,6.846S19.774,15.67,16,15.67
			s-6.846-3.071-6.846-6.846S12.226,1.979,16,1.979 M4.719,30.021c0.66-6.2,3.074-11.292,6.306-13.914
			c1.418,0.972,3.13,1.543,4.976,1.543c1.845,0,3.557-0.571,4.975-1.543c3.232,2.622,5.646,7.714,6.307,13.914H4.719z"></path>
      </g>
    </g>
  </g>
  <g id="speech" data-iconmelon="80 icons pack:a9d60000ca8edcf2afe45876d9cf53f3">
    <g>
      <g>
        <path d="M16,4.652c7.727,0,13.989,4.355,13.989,9.727S23.727,24.104,16,24.104c-0.178,0-0.354-0.005-0.53-0.009
			c-1.632,1.26-3.69,2.257-6.027,2.808c-1.298,0.306-2.577,0.442-3.81,0.442c-0.061,0-0.123,0-0.184,0
			c1.597-1.282,2.846-2.83,3.65-4.508c-4.232-1.672-7.089-4.833-7.089-8.459C2.011,9.008,8.274,4.652,16,4.652 M16,2.643
			c-4.143,0-8.063,1.139-11.04,3.208C1.762,8.075,0,11.104,0,14.379c0,3.7,2.335,7.125,6.227,9.316
			c-0.57,0.754-1.257,1.457-2.036,2.082c-0.661,0.531-0.919,1.422-0.641,2.225c0.276,0.803,1.028,1.345,1.878,1.354l0.205,0.001
			c1.437,0,2.873-0.167,4.271-0.496c2.28-0.538,4.413-1.482,6.213-2.745c4.1-0.021,7.975-1.159,10.923-3.209
			c3.198-2.224,4.96-5.252,4.96-8.527s-1.762-6.305-4.96-8.528C24.063,3.781,20.143,2.643,16,2.643L16,2.643z"></path>
      </g>
    </g>
  </g>
  <g id="conversation" data-iconmelon="80 icons pack:696569c6654fff25325173c5c234fd16">
    <g>
      <g>
        <path d="M32,14.639c0-4.038-4.638-7.323-10.339-7.323c-1.135,0-2.247,0.136-3.313,0.391c-1.88-0.957-4.172-1.514-6.673-1.514
			C5.128,6.192,0,9.997,0,14.854c0,2.631,1.574,5.069,4.221,6.688c-0.33,0.39-0.706,0.756-1.123,1.09
			c-0.587,0.472-0.814,1.262-0.568,1.973c0.246,0.712,0.912,1.192,1.665,1.201l0.149,0.001c1.044,0,2.088-0.122,3.104-0.361
			c1.617-0.381,3.134-1.045,4.425-1.933c2.68-0.031,5.111-0.702,7.041-1.819c0.891,0.174,1.81,0.27,2.748,0.27
			c0.073,0,0.146-0.002,0.229-0.003c1.222,0.913,2.706,1.593,4.306,1.97c0.915,0.216,1.855,0.325,2.797,0.325
			c0.045,0,0.09,0,0.134-0.001c0.188-0.002,0.355-0.122,0.417-0.3s0.004-0.376-0.143-0.493c-0.935-0.751-1.703-1.648-2.243-2.615
			C30.157,19.514,32,17.169,32,14.639z M11.675,21.731c-0.126,0-0.25-0.004-0.375-0.007c-1.153,0.891-2.609,1.596-4.262,1.985
			c-0.919,0.216-1.824,0.313-2.694,0.313c-0.044,0-0.087,0-0.13-0.001c1.13-0.906,2.013-2.001,2.582-3.188
			c-2.993-1.182-5.014-3.417-5.014-5.981c0-3.799,4.43-6.878,9.893-6.878c5.464,0,9.893,3.079,9.893,6.878
			S17.139,21.731,11.675,21.731z M26.377,20.207c-0.115,0.045-0.206,0.137-0.251,0.251c-0.046,0.116-0.041,0.244,0.013,0.356
			c0.43,0.895,1.032,1.741,1.771,2.497c-0.508-0.049-1.013-0.133-1.51-0.25c-1.531-0.361-2.946-1.02-4.092-1.903
			c-0.081-0.062-0.218-0.105-0.324-0.092c-0.659,0.016-1.318-0.02-1.968-0.099c2.071-1.555,3.334-3.705,3.334-6.114
			c0-2.6-1.47-4.896-3.839-6.471c0.702-0.112,1.42-0.176,2.149-0.176c5.209,0,9.447,2.885,9.447,6.432
			C31.108,16.92,29.295,19.054,26.377,20.207z"></path>
      </g>
      <g>
        <path d="M18.081,11.083H5.582c-0.492,0-0.891,0.399-0.891,0.892s0.398,0.891,0.891,0.891h12.499c0.492,0,0.892-0.398,0.892-0.891
			S18.573,11.083,18.081,11.083z"></path>
      </g>
      <g>
        <path d="M18.081,13.657H5.582c-0.492,0-0.891,0.399-0.891,0.892s0.398,0.891,0.891,0.891h12.499c0.492,0,0.892-0.398,0.892-0.891
			S18.573,13.657,18.081,13.657z"></path>
      </g>
      <g>
        <path d="M18.081,16.231H5.582c-0.492,0-0.891,0.399-0.891,0.892s0.398,0.892,0.891,0.892h12.499c0.492,0,0.892-0.399,0.892-0.892
			S18.573,16.231,18.081,16.231z"></path>
      </g>
    </g>
  </g>
</svg>